<svg width="3225" height="1279" xmlns="http://www.w3.org/2000/svg" xmlns:xlink="http://www.w3.org/1999/xlink" overflow="hidden"><defs><clipPath id="clip0"><rect x="387" y="88" width="3225" height="1279"/></clipPath><clipPath id="clip1"><rect x="386" y="88" width="3226" height="1279"/></clipPath><clipPath id="clip2"><rect x="696" y="287" width="2869" height="803"/></clipPath><clipPath id="clip3"><rect x="696" y="287" width="2869" height="803"/></clipPath><clipPath id="clip4"><rect x="696" y="287" width="2869" height="803"/></clipPath><clipPath id="clip5"><rect x="386" y="88" width="3226" height="1279"/></clipPath><clipPath id="clip6"><rect x="386" y="88" width="3226" height="1279"/></clipPath><clipPath id="clip7"><rect x="399" y="719" width="1156" height="99"/></clipPath><clipPath id="clip8"><rect x="386" y="88" width="3226" height="1279"/></clipPath><clipPath id="clip9"><rect x="1355" y="725" width="1156" height="100"/></clipPath><clipPath id="clip10"><rect x="386" y="88" width="3226" height="1279"/></clipPath><clipPath id="clip11"><rect x="2310" y="662" width="1156" height="99"/></clipPath><clipPath id="clip12"><rect x="386" y="88" width="3226" height="1279"/></clipPath><clipPath id="clip13"><rect x="386" y="88" width="3226" height="1279"/></clipPath><clipPath id="clip14"><rect x="386" y="88" width="3226" height="1279"/></clipPath><clipPath id="clip15"><rect x="386" y="88" width="3226" height="1279"/></clipPath><clipPath id="clip16"><rect x="386" y="88" width="3226" height="1279"/></clipPath><clipPath id="clip17"><rect x="386" y="88" width="3226" height="1279"/></clipPath><clipPath id="clip18"><rect x="386" y="88" width="3226" height="1279"/></clipPath><clipPath id="clip19"><rect x="386" y="88" width="3226" height="1279"/></clipPath><clipPath id="clip20"><rect x="386" y="88" width="3226" height="1279"/></clipPath><clipPath id="clip21"><rect x="386" y="88" width="3226" height="1279"/></clipPath><clipPath id="clip22"><rect x="386" y="88" width="3226" height="1279"/></clipPath><clipPath id="clip23"><rect x="386" y="88" width="3226" height="1279"/></clipPath><clipPath id="clip24"><rect x="386" y="88" width="3226" height="1279"/></clipPath><clipPath id="clip25"><rect x="386" y="88" width="3226" height="1279"/></clipPath><clipPath id="clip26"><rect x="386" y="88" width="3226" height="1279"/></clipPath><clipPath id="clip27"><rect x="386" y="88" width="3226" height="1279"/></clipPath><clipPath id="clip28"><rect x="386" y="88" width="3226" height="1279"/></clipPath><clipPath id="clip29"><rect x="386" y="88" width="3226" height="1279"/></clipPath><clipPath id="clip30"><rect x="386" y="88" width="3226" height="1279"/></clipPath><clipPath id="clip31"><rect x="386" y="88" width="3226" height="1279"/></clipPath><clipPath id="clip32"><rect x="386" y="88" width="3226" height="1279"/></clipPath></defs><g clip-path="url(#clip0)" transform="translate(-387 -88)"><g clip-path="url(#clip1)"><path d="M696.5 820.527 3561.5 820.527M696.5 553.518 3561.5 553.518M696.5 287.5 3561.5 287.5" stroke="#EDEDED" stroke-width="4.58333" stroke-linejoin="round" stroke-miterlimit="10" stroke-dasharray="13.75 4.58333" fill="none"/></g><g clip-path="url(#clip2)"><path d="M891.029 832.027 1050.03 832.027 1050.03 1087 891.029 1087ZM1846.06 838.027 2005.07 838.027 2005.07 1087 1846.06 1087ZM2802.09 774.025 2960.1 774.025 2960.1 1087 2802.09 1087Z" fill="#0064DE"/></g><g clip-path="url(#clip3)"><path d="M1094.04 412.014 1253.04 412.014 1253.04 1087 1094.04 1087ZM2050.07 561.018 2208.07 561.018 2208.07 1087 2050.07 1087ZM3005.1 543.018 3164.1 543.018 3164.1 1087 3005.1 1087Z" fill="#D9D9D9"/></g><g clip-path="url(#clip4)"><path d="M1297.04 412.014 1456.05 412.014 1456.05 1087 1297.04 1087ZM2253.07 553.018 2411.08 553.018 2411.08 1087 2253.07 1087ZM3208.11 589.019 3367.11 589.019 3367.11 1087 3208.11 1087Z" fill="#DC214D"/></g><g clip-path="url(#clip5)"><path d="M696.5 1086.5 3561.5 1086.5" stroke="#000000" stroke-width="3.4375" stroke-linejoin="round" stroke-miterlimit="10" fill="none" fill-rule="evenodd"/></g><g clip-path="url(#clip6)"><g clip-path="url(#clip7)"><text fill="#404040" font-family="Times New Roman,Times New Roman_MSFontService,sans-serif" font-weight="400" font-size="73" transform="matrix(1 0 0 1 894.95 795)">54.58 </text></g></g><g clip-path="url(#clip8)"><g clip-path="url(#clip9)"><text fill="#404040" font-family="Times New Roman,Times New Roman_MSFontService,sans-serif" font-weight="400" font-size="73" transform="matrix(1 0 0 1 1850.23 801)">54.35 </text></g></g><g clip-path="url(#clip10)"><g clip-path="url(#clip11)"><text fill="#404040" font-family="Times New Roman,Times New Roman_MSFontService,sans-serif" font-weight="400" font-size="73" transform="matrix(1 0 0 1 2805.52 737)">56.73 </text></g></g><g clip-path="url(#clip12)"><text fill="#404040" font-family="Times New Roman,Times New Roman_MSFontService,sans-serif" font-weight="400" font-size="73" transform="matrix(1 0 0 1 1091.19 375)">70.33 </text></g><g clip-path="url(#clip13)"><text fill="#404040" font-family="Times New Roman,Times New Roman_MSFontService,sans-serif" font-weight="400" font-size="73" transform="matrix(1 0 0 1 2046.48 524)">64.72 </text></g><g clip-path="url(#clip14)"><text fill="#404040" font-family="Times New Roman,Times New Roman_MSFontService,sans-serif" font-weight="400" font-size="73" transform="matrix(1 0 0 1 3001.76 506)">65.40 </text></g><g clip-path="url(#clip15)"><text fill="#404040" font-family="Times New Roman,Times New Roman_MSFontService,sans-serif" font-weight="400" font-size="73" transform="matrix(1 0 0 1 1294.31 375)">70.33 </text></g><g clip-path="url(#clip16)"><text fill="#404040" font-family="Times New Roman,Times New Roman_MSFontService,sans-serif" font-weight="400" font-size="73" transform="matrix(1 0 0 1 2249.59 516)">65.03 </text></g><g clip-path="url(#clip17)"><text fill="#404040" font-family="Times New Roman,Times New Roman_MSFontService,sans-serif" font-weight="400" font-size="73" transform="matrix(1 0 0 1 3204.88 552)">63.68 </text></g><g clip-path="url(#clip18)"><text font-family="Times New Roman,Times New Roman_MSFontService,sans-serif" font-weight="400" font-size="73" transform="matrix(1 0 0 1 541.989 1109)">45</text></g><g clip-path="url(#clip19)"><text font-family="Times New Roman,Times New Roman_MSFontService,sans-serif" font-weight="400" font-size="73" transform="matrix(1 0 0 1 541.989 843)">55</text></g><g clip-path="url(#clip20)"><text font-family="Times New Roman,Times New Roman_MSFontService,sans-serif" font-weight="400" font-size="73" transform="matrix(1 0 0 1 541.989 576)">65</text></g><g clip-path="url(#clip21)"><text font-family="Times New Roman,Times New Roman_MSFontService,sans-serif" font-weight="400" font-size="73" transform="matrix(1 0 0 1 541.989 310)">75</text></g><g clip-path="url(#clip22)"><text font-family="Times New Roman,Times New Roman_MSFontService,sans-serif" font-weight="400" font-size="73" transform="matrix(1 0 0 1 1155.36 1196)">1</text></g><g clip-path="url(#clip23)"><text font-family="Times New Roman,Times New Roman_MSFontService,sans-serif" font-weight="400" font-size="73" transform="matrix(1 0 0 1 2110.64 1196)">2</text></g><g clip-path="url(#clip24)"><text font-family="Times New Roman,Times New Roman_MSFontService,sans-serif" font-weight="400" font-size="73" transform="matrix(1 0 0 1 3065.93 1196)">3</text></g><g clip-path="url(#clip25)"><text font-family="Times New Roman,Times New Roman_MSFontService,sans-serif" font-weight="400" font-size="73" transform="matrix(6.12323e-17 -1 1 6.12323e-17 511.899 914)">Conditional SR</text></g><g clip-path="url(#clip26)"><text font-family="Times New Roman,Times New Roman_MSFontService,sans-serif" font-weight="400" font-size="73" transform="matrix(1 0 0 1 1901.93 1294)">Object Number</text></g><g clip-path="url(#clip27)"><rect x="1283" y="152" width="37.0001" height="36.0001" fill="#0064DE"/></g><g clip-path="url(#clip28)"><text font-family="Times New Roman,Times New Roman_MSFontService,sans-serif" font-weight="400" font-size="73" transform="matrix(1 0 0 1 1336.45 192)">OneMap</text></g><g clip-path="url(#clip29)"><rect x="1680" y="152" width="37.0001" height="36.0001" fill="#D9D9D9"/></g><g clip-path="url(#clip30)"><text font-family="Times New Roman,Times New Roman_MSFontService,sans-serif" font-weight="400" font-size="73" transform="matrix(1 0 0 1 1733.19 192)">w/o H-POI</text></g><g clip-path="url(#clip31)"><rect x="2144" y="152" width="37.0002" height="36.0001" fill="#DC214D"/></g><g clip-path="url(#clip32)"><text font-family="Times New Roman,Times New Roman_MSFontService,sans-serif" font-weight="400" font-size="73" transform="matrix(1 0 0 1 2197.27 192)">LifelongCrossNav</text></g></g></svg>